<?xml version="1.0" standalone="no"?>
<!DOCTYPE svg PUBLIC "-//W3C//DTD SVG 20010904//EN"
 "http://www.w3.org/TR/2001/REC-SVG-20010904/DTD/svg10.dtd">
<svg version="1.0" xmlns="http://www.w3.org/2000/svg"
 width="1200.000000pt" height="1200.000000pt" viewBox="0 0 1200.000000 1200.000000"
 preserveAspectRatio="xMidYMid meet">
<metadata>
Created by potrace 1.14, written by Peter Selinger 2001-2017
</metadata>
<g transform="translate(0.000000,1200.000000) scale(0.100000,-0.100000)"
fill="#000000" stroke="none">
<path d="M4790 10665 l0 -125 -470 0 -470 0 0 -173 0 -174 -137 -6 c-75 -4
-225 -7 -335 -7 l-198 0 0 -190 0 -190 -215 0 -215 0 0 -225 0 -225 -230 0
-230 0 0 -215 0 -215 -235 0 -235 0 0 -405 0 -405 -230 0 -230 0 0 -435 0
-435 -160 0 -160 0 0 -1160 0 -1160 154 0 c151 0 154 0 159 -23 2 -12 3 -91 2
-174 -2 -86 1 -153 6 -153 5 0 9 -131 9 -305 l0 -305 220 0 220 0 0 -405 0
-405 245 0 245 0 0 -210 0 -210 215 0 215 0 0 -225 0 -225 225 0 225 0 0 -180
0 -180 335 0 335 0 0 -189 0 -188 31 -7 c17 -3 227 -6 465 -6 l434 0 0 -155 0
-155 1185 0 1185 0 0 145 0 145 475 0 475 0 0 205 0 205 338 2 c185 1 311 3
280 5 l-58 4 0 174 0 175 295 0 295 0 0 225 0 225 245 0 245 0 0 210 0 210
245 0 245 0 0 406 0 405 225 -3 226 -3 -7 493 -7 492 146 0 147 0 0 1150 0
1150 -145 0 -145 0 0 318 c0 174 -3 368 -7 430 l-6 112 -219 0 -218 0 0 405 0
405 -240 0 -240 0 0 215 0 215 -245 0 -245 0 0 240 0 240 -295 0 -295 0 0 180
0 180 -280 0 -280 0 0 170 0 170 -475 0 -475 0 0 135 0 135 -1180 0 -1180 0 0
-125z"/>
</g>
</svg>
